<svg width="59" height="73" viewBox="0 0 59 73" fill="none" xmlns="http://www.w3.org/2000/svg">
<path d="M25.384 1.648C28.264 1.712 31.144 2.032 34.024 2.608C36.904 3.12 39.56 3.984 41.992 5.2C44.488 6.416 46.664 8.016 48.52 10C50.44 11.984 51.88 14.48 52.84 17.488H58.888V18.544H52.936C53.32 19.824 53.608 21.104 53.8 22.384C53.992 23.6 54.088 25.04 54.088 26.704C54.088 28.368 53.96 29.904 53.704 31.312C53.512 32.72 53.192 34.064 52.744 35.344H58.888V36.496H52.648C51.56 39.44 50.024 41.904 48.04 43.888C46.056 45.808 43.784 47.344 41.224 48.496C38.728 49.648 36.008 50.48 33.064 50.992C30.12 51.44 27.176 51.664 24.232 51.664C23.592 51.664 23.272 51.344 23.272 50.704C23.272 50.128 23.56 49.84 24.136 49.84C26.44 49.584 28.648 49.2 30.76 48.688C32.936 48.112 34.952 47.312 36.808 46.288C38.664 45.264 40.296 43.952 41.704 42.352C43.176 40.752 44.328 38.8 45.16 36.496H17.992V52.624H58.888V53.776H17.992V70H16.072V53.776H14.152V70H6.76V53.776H0.904V52.624H6.76V36.496H0.904V35.344H6.76V18.544H0.904V17.488H6.76V1.648H14.152V17.488H16.072V1.648H17.992V17.488H45.448C44.808 15.312 43.912 13.424 42.76 11.824C41.608 10.16 40.296 8.752 38.824 7.6C37.352 6.384 35.72 5.392 33.928 4.62399C32.136 3.856 30.28 3.248 28.36 2.8C30.024 3.952 30.856 5.584 30.856 7.696C30.856 9.36 30.248 10.768 29.032 11.92C27.88 13.072 26.472 13.648 24.808 13.648C23.144 13.648 21.736 13.072 20.584 11.92C19.432 10.768 18.856 9.36 18.856 7.696C18.856 6.032 19.432 4.624 20.584 3.472C21.736 2.256 23.144 1.648 24.808 1.648H25.384ZM14.152 35.344H16.072V18.544H14.152V35.344ZM16.072 36.496H14.152V52.624H16.072V36.496ZM46.696 26.704C46.696 25.04 46.568 23.6 46.312 22.384C46.12 21.104 45.864 19.824 45.544 18.544H17.992V35.344H45.256C45.704 34.064 46.056 32.752 46.312 31.408C46.568 30 46.696 28.432 46.696 26.704ZM58.888 0.111996V1.264H0.904V0.111996H58.888ZM0.904 70.864H58.888V72.016H0.904V70.864Z" fill="black"/>
</svg>
