<svg id="Calque_2" data-name="Calque 2" xmlns="http://www.w3.org/2000/svg" viewBox="0 0 755.36 989.49"><defs><style>.cls-1{fill:#f2f2f2;}.cls-2{fill:#600080;}.cls-3{fill:#c06;}.cls-4{fill:#e5017b;}.cls-5{fill:#639;}.cls-6{fill:#423764;}.cls-7{fill:#1b626e;}.cls-8,.cls-9{fill:#01d1b2;}.cls-9{stroke:#e6e6e6;stroke-miterlimit:10;stroke-width:6px;}</style></defs><title>nathan</title><path class="cls-1" d="M190.73,1062.56l-2.75-27a748.05,748.05,0,0,1-1.72-132.43c3.89-50.48,7.55-98.16,32.45-152.63A333.2,333.2,0,0,1,236,717.73a320,320,0,0,1,59.11-75.21q2.26-2.12,4.59-4.2c-39.75-38.07-67-85.31-80.88-140.51-11.69-46.29-11.31-86.62-11.08-110.72.22-23.87.56-59.94,10.22-99.32,11.66-47.53,34.35-89,67.42-123.17,5.25-5.43,24.83-24.65,56.25-44,41.85-25.83,86.69-41.3,133.27-46,9.84-1,19.84-1.49,29.73-1.49,6.63,0,13.36.23,20,.67,47.68,3.19,93.17,17.52,135.23,42.58a334.75,334.75,0,0,1,64,49.63c9.32,9.07,28.72,28,46.39,57.24,8,13.29,15,28.81,25.15,65.07C802,312,813.06,351.83,818.05,406.89c.63,7.1,5.67,70.19-8.46,113.73-.44,1.36-.83,2.49-1.16,3.42-1.5,4.28-3.18,8.63-5,12.92l-.19.46c-3,6.79-5.77,12.28-7.59,15.9-.71,1.41-1.47,2.88-2.26,4.39a330.36,330.36,0,0,1-28.8,44.79c8,4.94,15.63,10.15,22.88,15.61,7.68,5.79,15.12,12,22.12,18.4a343.36,343.36,0,0,1,36.1,38c54.9,67.42,69.19,137.32,80.67,193.49a656.33,656.33,0,0,1,12.16,166.16l-1.5,28.42Z" transform="translate(-184.11 -73.07)"/><path class="cls-2" d="M315.56,666.37a288.31,288.31,0,0,0-53.65,68.36c82.9,88.86,205.23,126.94,318.69,98.12C719.29,797.61,780.42,678.74,789.38,660.6c-3.63-3.33-10.62-9.57-20-16.59C649.06,553.38,435.5,554.32,315.56,666.37Z" transform="translate(-184.11 -73.07)"/><path class="cls-3" d="M719,578.13C694,592,643.91,619.92,577.32,626.59c-81.22,8.14-144-19.63-167.39-30.29C383.13,584.06,294.85,543.75,257,450.91c-3.79-9.31-20.17-51.29-16.09-107.53,1.37-19,7-83.8,57.94-143.88,57.68-68.05,137.45-87.56,179-93.16-100.24,10.1-164.18,74-171,81-68,70.27-68.76,154.18-69.21,201.91-.43,45-1.44,152.16,86.91,233.23,13.85,12.7,101.41,90.4,227,75.73,122.62-14.34,190.83-106.2,215.29-152.61l-1.22,2.19A410.57,410.57,0,0,1,719,578.13Z" transform="translate(-184.11 -73.07)"/><path class="cls-4" d="M766.43,298.25c-9.06-32.45-15.14-46.39-21.93-57.63-15.25-25.27-32.17-42-41.63-51.24-16.49-16-79.15-77-180.27-83.78a267.82,267.82,0,0,0-44.72.74c-41.56,5.6-121.33,25.11-179,93.16C248,259.58,242.3,324.4,240.93,343.38c-4.08,56.24,12.3,98.22,16.09,107.53,37.83,92.84,126.11,133.15,152.91,145.39,23.35,10.66,86.17,38.43,167.39,30.29C643.91,619.92,694,592,719,578.13a410.57,410.57,0,0,0,46.68-30.29l1.22-2.19c.7-1.33,1.37-2.62,2-3.87,1.81-3.61,4.27-8.52,6.95-14.56,1.46-3.48,2.92-7.21,4.32-11.19.25-.74.57-1.65.92-2.74,12.65-39,7.12-101.76,7.12-101.76C783.52,360.23,773.51,323.64,766.43,298.25Z" transform="translate(-184.11 -73.07)"/><path class="cls-5" d="M295.68,688.73c10.53,13.46,88.74,110.19,215.34,111,108.33.68,182.34-69.3,205.41-91.11a333.87,333.87,0,0,0,53-64.6,315.38,315.38,0,0,1,53,51.35c49.24,60.47,63,124,74.54,180.55a625.68,625.68,0,0,1,11.6,158.58H217.83a714.49,714.49,0,0,1-1.66-127.1c4-51.71,7.6-93.83,29.82-142.46A309.33,309.33,0,0,1,295.68,688.73Z" transform="translate(-184.11 -73.07)"/><path class="cls-6" d="M142,408.19" transform="translate(-184.11 -73.07)"/><path class="cls-7" d="M484.89,106.47a197.51,197.51,0,0,0-51.54,37.05c-47.85,48-56.33,107.36-59.08,128.8a243.2,243.2,0,0,0,0,61.49,128.58,128.58,0,0,1,59.25-10.5A237.32,237.32,0,0,1,431.7,276c1.38-22,4.08-65.07,33.13-106,28.85-40.67,68.3-57.58,86.05-63.88a168.41,168.41,0,0,0-66,.33Z" transform="translate(-184.11 -73.07)"/><path class="cls-8" d="M875.63,78.92" transform="translate(-184.11 -73.07)"/><path class="cls-8" d="M378.69,82.23" transform="translate(-184.11 -73.07)"/><path class="cls-9" d="M439.58,300.72a148,148,0,0,0-108,46.39V329.17H271.75V677.76h59.83V544.54a148,148,0,0,0,108,46.39c81.41,0,147.4-65,147.4-145.1S521,300.72,439.58,300.72Zm0,221.35c-42.77,0-77.45-34.14-77.45-76.24s34.68-76.25,77.45-76.25S517,403.72,517,445.83,482.35,522.07,439.58,522.07Z" transform="translate(-184.11 -73.07)"/><path class="cls-9" d="M867.16,589.68h.59a100.45,100.45,0,0,1-.59-10.75Z" transform="translate(-184.11 -73.07)"/><path class="cls-9" d="M1146.11,734.64" transform="translate(-184.11 -73.07)"/></svg>