<svg width="437" height="73" viewBox="0 0 437 73" fill="none" xmlns="http://www.w3.org/2000/svg">
<path d="M25.384 1.648C28.264 1.712 31.144 2.032 34.024 2.608C36.904 3.12 39.56 3.984 41.992 5.2C44.488 6.416 46.664 8.016 48.52 10C50.44 11.984 51.88 14.48 52.84 17.488H58.888V18.544H52.936C53.32 19.824 53.608 21.104 53.8 22.384C53.992 23.6 54.088 25.04 54.088 26.704C54.088 28.368 53.96 29.904 53.704 31.312C53.512 32.72 53.192 34.064 52.744 35.344H58.888V36.496H52.648C51.56 39.44 50.024 41.904 48.04 43.888C46.056 45.808 43.784 47.344 41.224 48.496C38.728 49.648 36.008 50.48 33.064 50.992C30.12 51.44 27.176 51.664 24.232 51.664C23.592 51.664 23.272 51.344 23.272 50.704C23.272 50.128 23.56 49.84 24.136 49.84C26.44 49.584 28.648 49.2 30.76 48.688C32.936 48.112 34.952 47.312 36.808 46.288C38.664 45.264 40.296 43.952 41.704 42.352C43.176 40.752 44.328 38.8 45.16 36.496H17.992V52.624H58.888V53.776H17.992V70H16.072V53.776H14.152V70H6.76V53.776H0.904V52.624H6.76V36.496H0.904V35.344H6.76V18.544H0.904V17.488H6.76V1.648H14.152V17.488H16.072V1.648H17.992V17.488H45.448C44.808 15.312 43.912 13.424 42.76 11.824C41.608 10.16 40.296 8.752 38.824 7.6C37.352 6.384 35.72 5.392 33.928 4.62399C32.136 3.856 30.28 3.248 28.36 2.8C30.024 3.952 30.856 5.584 30.856 7.696C30.856 9.36 30.248 10.768 29.032 11.92C27.88 13.072 26.472 13.648 24.808 13.648C23.144 13.648 21.736 13.072 20.584 11.92C19.432 10.768 18.856 9.36 18.856 7.696C18.856 6.032 19.432 4.624 20.584 3.472C21.736 2.256 23.144 1.648 24.808 1.648H25.384ZM14.152 35.344H16.072V18.544H14.152V35.344ZM16.072 36.496H14.152V52.624H16.072V36.496ZM46.696 26.704C46.696 25.04 46.568 23.6 46.312 22.384C46.12 21.104 45.864 19.824 45.544 18.544H17.992V35.344H45.256C45.704 34.064 46.056 32.752 46.312 31.408C46.568 30 46.696 28.432 46.696 26.704ZM58.888 0.111996V1.264H0.904V0.111996H58.888ZM0.904 70.864H58.888V72.016H0.904V70.864ZM58.6517 0.111996H83.0358V1.264H58.6517V0.111996ZM58.6517 72.016V70.864H83.0358V72.016H58.6517ZM71.4198 1.648V17.488H83.0358V18.448H71.4198V33.424V35.344H83.0358V36.4H71.4198V52.624H83.0358V53.776H71.4198V70H69.5958V53.776H58.6517V52.624H69.5958V36.4H58.6517V35.344H69.5958V33.424V18.448H58.6517V17.488H69.5958V1.648H71.4198ZM130.167 35.344H136.791V36.496H130.167V49.072V49.264C130.167 49.968 130.135 50.544 130.071 50.992C130.007 51.376 129.911 51.92 129.783 52.624H136.791V53.776H129.687C129.175 56.144 128.279 58.32 126.999 60.304C125.783 62.288 124.247 64.016 122.391 65.488C120.599 66.896 118.551 68.016 116.247 68.848C113.943 69.616 111.511 70 108.951 70C106.391 70 103.959 69.616 101.655 68.848C99.4153 68.016 97.3673 66.896 95.5113 65.488C93.7193 64.016 92.1833 62.288 90.9033 60.304C89.6233 58.32 88.7273 56.144 88.2153 53.776H82.8392V52.624H88.2153C88.0873 51.92 87.9913 51.376 87.9273 50.992C87.8633 50.544 87.8313 49.968 87.8313 49.264C87.8313 46.704 88.1513 44.4 88.7913 42.352C89.4953 40.304 90.6473 38.352 92.2473 36.496H82.8392V35.344H93.0153C94.9353 33.104 97.2713 31.44 100.023 30.352C102.775 29.2 105.751 28.624 108.951 28.624C112.215 28.624 115.191 29.2 117.879 30.352C120.631 31.44 122.999 33.104 124.983 35.344H128.535V28.624H130.167V35.344ZM128.535 36.496H125.751C126.455 37.328 126.967 38.096 127.287 38.8C127.671 39.44 128.087 40.24 128.535 41.2V36.496ZM82.8392 17.488H136.791V18.544H82.8392V17.488ZM136.791 0.111996V1.264H82.8392V0.111996H136.791ZM82.8392 70.96H136.791V72.016H82.8392V70.96ZM172.462 28.432L168.334 35.344H177.454V36.496H167.95L159.886 49.264L158.83 50.992L157.87 52.624H177.454V53.776H157.294L147.406 70H145.198L155.086 53.776H136.846V52.624H155.566L157.774 49.264L149.71 36.496H136.846V35.344H149.326L145.198 28.432H147.406L151.438 35.344H166.222L170.254 28.432H172.462ZM158.83 47.44L165.742 36.496H151.918L158.83 47.44ZM136.846 18.448V17.488H177.454V18.448H136.846ZM135.118 0.0159969H177.454V1.36H135.118V0.0159969ZM136.846 72.016V70.864H177.454V72.016H136.846ZM193.47 1.648V17.488H234.462V18.448H193.47V35.344H234.462V36.4H193.47V52.624H234.462V53.776H193.47V62.8H229.566V70H193.47H191.934H191.646V53.776H189.726V70H182.238V53.776H177.341V52.624H182.238V36.4H177.341V35.344H182.238V18.448H177.341V17.488H182.238V1.648H189.726V17.488H191.646V1.648H193.47ZM191.646 52.624V36.4H189.726V52.624H191.646ZM191.646 35.344V18.448H189.726V35.344H191.646ZM177.341 0.111996H234.462V1.36H177.341V0.111996ZM177.341 72.016V70.96H234.462V72.016H177.341ZM234.245 18.544V17.488H256.326V18.544H234.245ZM234.245 0.111996H256.326V1.264H234.245V0.111996ZM234.245 72.016V70.96H256.326V72.016H234.245ZM246.246 28.432V35.344H256.326V36.4H246.246V52.624H256.326V53.776H246.246V70H244.134V53.776H234.245V52.624H244.134V36.4H234.245V35.344H244.134V28.432H246.246ZM256.281 17.488H303.225V18.544H256.281V17.488ZM303.225 0.111996V1.264H256.281V0.111996H303.225ZM256.281 70.96H303.225V72.016H256.281V70.96ZM279.993 28.528C283.641 28.528 286.873 29.136 289.689 30.352C292.505 31.568 294.489 33.232 295.641 35.344H303.225V36.496H295.929C296.185 37.008 296.345 37.488 296.409 37.936C296.473 38.32 296.505 38.832 296.505 39.472H294.393C294.393 38.832 294.329 38.32 294.201 37.936C294.073 37.488 293.849 37.008 293.529 36.496H266.361C266.041 37.008 265.817 37.488 265.689 37.936C265.625 38.32 265.593 38.832 265.593 39.472C265.593 40.688 265.977 41.84 266.745 42.928C267.513 43.952 268.537 44.88 269.817 45.712C271.161 46.48 272.697 47.088 274.425 47.536C276.217 47.984 278.073 48.208 279.993 48.208C281.273 48.208 282.489 48.272 283.641 48.4C284.857 48.464 286.009 48.656 287.097 48.976C288.569 49.488 289.881 50 291.033 50.512C292.249 51.024 293.273 51.728 294.105 52.624H303.225V53.776H294.873C295.577 54.608 296.025 55.472 296.217 56.368C296.409 57.2 296.505 58.096 296.505 59.056C296.505 60.592 296.057 62.032 295.161 63.376C294.329 64.656 293.145 65.808 291.609 66.832C290.137 67.792 288.409 68.56 286.425 69.136C284.441 69.712 282.297 70 279.993 70C277.689 70 275.545 69.712 273.561 69.136C271.577 68.56 269.817 67.792 268.281 66.832C266.809 65.808 265.625 64.656 264.729 63.376C263.897 62.032 263.481 60.592 263.481 59.056H265.593C265.593 60.272 265.977 61.424 266.745 62.512C267.513 63.6 268.537 64.56 269.817 65.392C271.161 66.16 272.697 66.768 274.425 67.216C276.217 67.664 278.073 67.888 279.993 67.888C281.913 67.888 283.737 67.664 285.465 67.216C287.257 66.768 288.793 66.16 290.073 65.392C291.417 64.56 292.473 63.632 293.241 62.608C294.009 61.52 294.393 60.336 294.393 59.056C294.393 57.968 294.169 57.008 293.721 56.176C293.337 55.28 292.633 54.48 291.609 53.776H256.281V52.624H290.841C289.753 52.048 288.729 51.632 287.769 51.376C286.873 51.056 285.977 50.832 285.081 50.704C284.249 50.512 283.417 50.416 282.585 50.416C281.753 50.352 280.857 50.32 279.897 50.32C279.001 50.32 277.881 50.224 276.537 50.032C275.193 49.84 273.977 49.584 272.889 49.264C270.073 48.368 267.801 47.056 266.073 45.328C264.345 43.6 263.481 41.648 263.481 39.472C263.481 38.832 263.481 38.32 263.481 37.936C263.545 37.488 263.705 37.008 263.961 36.496H256.281V35.344H264.345C265.497 33.232 267.481 31.568 270.297 30.352C273.113 29.136 276.345 28.528 279.993 28.528ZM293.145 35.344C291.929 33.808 290.137 32.656 287.769 31.888C285.401 31.056 282.777 30.64 279.897 30.64C277.017 30.64 274.393 31.056 272.025 31.888C269.721 32.656 267.993 33.808 266.841 35.344H293.145ZM322.553 17.104V17.392H341.273V18.448H322.553V19.216H316.505H311.705V25.648V35.344H341.273V36.496H311.705V52.048H309.593V36.496H302.969V35.344H309.593V25.648V19.216V18.448H302.969V17.392H309.593V17.104V1.744H311.705V16.72H316.505H322.553V17.104ZM311.705 52.624H341.273V53.776H311.705C311.769 55.76 312.217 57.616 313.049 59.344C313.881 61.072 314.969 62.576 316.313 63.856C317.657 65.072 319.193 66.064 320.921 66.832C322.713 67.536 324.633 67.888 326.681 67.888C329.945 67.888 332.825 66.992 335.321 65.2L336.665 66.736C333.785 68.912 330.457 70 326.681 70C324.377 70 322.201 69.584 320.153 68.752C318.105 67.92 316.313 66.768 314.777 65.296C313.241 63.824 311.993 62.128 311.033 60.208C310.137 58.224 309.657 56.08 309.593 53.776H302.969V52.624H309.593V52.048H311.705V52.624ZM341.273 0.111996V1.36H302.969V0.111996H341.273ZM302.969 70.96H341.273V72.016H302.969V70.96ZM341.505 17.488H394.497V18.544H341.505V17.488ZM394.497 0.111996V1.264H341.409V0.111996H394.497ZM341.505 70.96H394.497V72.016H341.505V70.96ZM368.001 28.528C371.329 28.528 374.433 29.104 377.313 30.256C380.193 31.408 382.657 33.104 384.705 35.344H394.497V36.4H385.665C385.985 36.784 386.145 37.104 386.145 37.36C386.209 37.552 386.401 37.872 386.721 38.32C387.233 39.024 387.649 39.792 387.969 40.624C388.289 41.456 388.449 42.32 388.449 43.216C388.449 45.392 387.713 47.248 386.241 48.784C384.769 50.256 382.593 51.536 379.713 52.624H394.497V53.776H378.081C376.737 54.224 375.329 54.544 373.857 54.736C372.385 54.864 370.849 54.928 369.249 54.928C367.649 54.928 366.113 54.864 364.641 54.736C363.169 54.544 361.761 54.224 360.417 53.776H348.129C348.641 55.888 349.505 57.872 350.721 59.728C352.001 61.52 353.505 63.056 355.233 64.336C356.961 65.616 358.913 66.64 361.089 67.408C363.265 68.112 365.569 68.464 368.001 68.464C371.905 68.464 375.425 67.536 378.561 65.68C381.761 63.824 384.193 61.36 385.857 58.288H387.777C385.985 61.744 383.329 64.56 379.809 66.736C376.353 68.912 372.417 70 368.001 70C365.313 70 362.785 69.616 360.417 68.848C358.049 68.016 355.905 66.896 353.984 65.488C352.065 64.016 350.433 62.288 349.089 60.304C347.809 58.32 346.913 56.144 346.401 53.776H341.505V52.624H346.305C346.177 51.92 346.081 51.376 346.017 50.992C345.953 50.544 345.921 49.968 345.921 49.264C345.921 44.208 347.457 39.92 350.529 36.4H341.505V35.344H351.297C353.345 33.104 355.777 31.408 358.593 30.256C361.473 29.104 364.609 28.528 368.001 28.528ZM358.593 52.624C357.761 52.304 357.185 52.112 356.865 52.048C356.545 51.92 356.065 51.664 355.424 51.28C355.361 51.216 355.265 51.152 355.137 51.088C355.009 51.024 354.849 50.96 354.657 50.896C354.529 50.768 354.401 50.64 354.273 50.512C354.273 50.448 354.241 50.416 354.177 50.416L353.984 50.224H353.889C353.121 49.584 352.225 48.72 351.201 47.632C350.177 46.48 349.313 45.072 348.609 43.408C348.289 44.304 348.033 45.264 347.841 46.288C347.713 47.248 347.648 48.24 347.648 49.264C347.648 49.968 347.681 50.544 347.745 50.992C347.873 51.376 348.001 51.92 348.129 52.624H358.593ZM394.373 17.488H436.805V18.544H394.373V17.488ZM436.805 0.111996V1.264H394.373V0.111996H436.805ZM394.373 70.96H436.805V72.016H394.373V70.96ZM415.301 28.432C417.797 28.432 420.037 29.04 422.021 30.256C424.069 31.472 425.605 33.168 426.629 35.344H436.805V36.4H426.725C427.045 37.168 427.301 37.904 427.493 38.608C427.685 39.248 427.781 40.016 427.781 40.912H426.053C426.053 40.016 425.925 39.248 425.669 38.608C425.477 37.904 425.189 37.168 424.805 36.4H405.701C405.317 37.168 405.029 37.904 404.837 38.608C404.645 39.248 404.549 40.016 404.549 40.912V47.824V52.624H436.805V53.776H404.549V70H402.821V53.776H394.373V52.624H402.821V47.824V36.4H394.373V35.344H402.821V28.432H404.549V34.384C405.637 32.528 407.109 31.088 408.965 30.064C410.885 28.976 412.997 28.432 415.301 28.432ZM424.709 35.344C423.813 33.68 422.533 32.4 420.869 31.504C419.205 30.608 417.349 30.16 415.301 30.16C413.253 30.16 411.397 30.608 409.733 31.504C408.069 32.4 406.789 33.68 405.893 35.344H424.709Z" fill="black"/>
</svg>
